<svg xmlns="http://www.w3.org/2000/svg" xmlns:xlink="http://www.w3.org/1999/xlink" width="15" height="11" viewBox="0 0 15 11">
  <defs>
    <path id="envelope-a" d="M13.2011416,0.500025034 C13.565724,0.500025034 13.8756193,0.627629035 14.1308269,0.882836621 C14.3860345,1.13804421 14.5136385,1.44793958 14.5136385,1.8125219 L14.5136385,9.68750313 C14.5136385,10.0520855 14.3860345,10.3619808 14.1308269,10.6171884 C13.8756193,10.872396 13.565724,11 13.2011416,11 L1.82616875,11 C1.46158642,11 1.15169105,10.872396 0.896483462,10.6171884 C0.641275877,10.3619808 0.513671875,10.0520855 0.513671875,9.68750313 L0.513671875,1.8125219 C0.513671875,1.44793958 0.641275877,1.13804421 0.896483462,0.882836621 C1.15169105,0.627629035 1.46158642,0.500025034 1.82616875,0.500025034 L13.2011416,0.500025034 Z M1.82616875,1.37502295 C1.69856474,1.37502295 1.59374742,1.41603847 1.51171637,1.49806953 C1.42968532,1.58010058 1.38866979,1.6849179 1.38866979,1.8125219 L1.38866979,2.93361298 C2.02668896,3.48048668 3.40298804,4.59246333 5.51756619,6.26954253 L5.76365936,6.48829201 C6.12824168,6.79818696 6.41990779,7.01693644 6.63865727,7.14454044 C6.98501075,7.38151918 7.27667644,7.50000834 7.51365519,7.50000834 C7.75063393,7.50000834 8.04229962,7.38151918 8.3886531,7.14454044 C8.58917332,7.01693644 8.871725,6.79818696 9.23630733,6.48829201 L9.50974418,6.26954253 C11.6243223,4.59246333 13.0006214,3.48048668 13.6386406,2.93361298 L13.6386406,1.8125219 C13.6386406,1.6849179 13.5976251,1.58010058 13.515594,1.49806953 C13.4335629,1.41603847 13.3287456,1.37502295 13.2011416,1.37502295 L1.82616875,1.37502295 Z M13.2011416,10.1250021 C13.3287456,10.1250021 13.4335629,10.0839866 13.515594,10.0019555 C13.5976251,9.91992445 13.6386406,9.81510713 13.6386406,9.68750313 L13.6386406,4.08204774 C13.0006214,4.59246333 11.8066137,5.5494923 10.0566179,6.95313465 L9.78318102,7.17188413 C9.34568207,7.53646645 8.99932859,7.80078888 8.744121,7.96485099 C8.28839278,8.23828783 7.87823751,8.37500626 7.51365519,8.37500626 C7.14907286,8.37500626 6.73891759,8.23828783 6.28318937,7.96485099 C6.00975252,7.80078888 5.66339904,7.53646645 5.24412935,7.17188413 L4.9706925,6.95313465 C3.22069667,5.5494923 2.02668896,4.59246333 1.38866979,4.08204774 L1.38866979,9.68750313 C1.38866979,9.81510713 1.42968532,9.91992445 1.51171637,10.0019555 C1.59374742,10.0839866 1.69856474,10.1250021 1.82616875,10.1250021 L13.2011416,10.1250021 Z"/>
  </defs>
  <g fill="none" fill-rule="evenodd">
    <use fill="#4E7687" fill-opacity=".504" xlink:href="#envelope-a"/>
  </g>
</svg>
