<svg xmlns="http://www.w3.org/2000/svg" xmlns:xlink="http://www.w3.org/1999/xlink" width="11" height="15" viewBox="0 0 11 15">
  <defs>
    <path id="pdf-a" d="M10.3808353,3.42971032 C10.6360428,3.6849179 10.7636468,3.99481328 10.7636468,4.3593956 L10.7636468,13.437499 C10.7636468,13.8020813 10.6360428,14.1119767 10.3808353,14.3671842 C10.1256277,14.6223918 9.8157323,14.7499958 9.45114997,14.7499958 L1.57616875,14.7499958 C1.21158642,14.7499958 0.901691048,14.6223918 0.646483462,14.3671842 C0.391275877,14.1119767 0.263671875,13.8020813 0.263671875,13.437499 L0.263671875,2.06252608 C0.263671875,1.69794375 0.391275877,1.38804838 0.646483462,1.13284079 C0.901691048,0.877633208 1.21158642,0.750029206 1.57616875,0.750029206 L7.15428045,0.750029206 C7.51886277,0.750029206 7.82875814,0.877633208 8.08396573,1.13284079 L10.3808353,3.42971032 Z M9.7519305,4.05861507 L7.45506098,1.76174554 C7.40037361,1.70705817 7.33657182,1.66148523 7.26365519,1.62502712 L7.26365519,4.25002086 L9.88864893,4.25002086 C9.85219082,4.17710423 9.80661787,4.11330244 9.7519305,4.05861507 Z M9.45114997,13.8749979 C9.57875397,13.8749979 9.68357129,13.8339824 9.76560235,13.7519513 C9.8476334,13.6699203 9.88864893,13.565103 9.88864893,13.437499 L9.88864893,5.12501878 L7.04490571,5.12501878 C6.86261434,5.12501878 6.70766707,5.06121698 6.58006307,4.93361298 C6.45245906,4.80600898 6.38865727,4.65106171 6.38865727,4.46877034 L6.38865727,1.62502712 L1.57616875,1.62502712 C1.44856474,1.62502712 1.34374742,1.66604265 1.26171637,1.7480737 C1.17968532,1.83010476 1.13866979,1.93492208 1.13866979,2.06252608 L1.13866979,13.437499 C1.13866979,13.565103 1.17968532,13.6699203 1.26171637,13.7519513 C1.34374742,13.8339824 1.44856474,13.8749979 1.57616875,13.8749979 L9.45114997,13.8749979 Z M8.8495889,9.19922781 C8.94073438,9.29037329 8.99542175,9.42709171 9.01365101,9.60938308 C9.03188028,9.79167446 8.98174991,9.95117914 8.86326075,10.0878976 C8.74477159,10.224616 8.57159464,10.2929752 8.34373074,10.2929752 C8.11586683,10.2929752 7.83787257,10.2428453 7.50974835,10.1425849 C7.18162413,10.0423246 6.87172918,9.91016362 6.58006307,9.74610151 C6.19725148,9.81901814 5.58657599,9.99219467 4.74803618,10.2656315 L4.33788091,10.4023499 C4.00975669,10.9674529 3.722648,11.3867226 3.47655484,11.6601594 C3.23046168,11.9335963 2.97981109,12.088544 2.72460351,12.1250021 C2.50585403,12.1432313 2.32812008,12.0839866 2.19140165,11.9472681 C2.05468323,11.8105497 1.99543844,11.6601594 2.0136677,11.4960973 C2.12304244,11.0403691 2.66080172,10.5572976 3.62694511,10.046882 C3.97329859,9.46355024 4.35611017,8.66146854 4.77537987,7.64063778 C4.64777587,7.13022219 4.56574481,6.72006692 4.5292867,6.41017196 C4.47459934,6.04558964 4.48371376,5.7448091 4.55663039,5.50783036 C4.5930885,5.34376825 4.70702066,5.22983609 4.89842645,5.1660343 C5.08983224,5.10223251 5.27668062,5.11134693 5.45897199,5.19337799 C5.64126336,5.27540904 5.7506381,5.44402857 5.78709621,5.69923616 C5.84178358,5.89975637 5.84178358,6.17319322 5.78709621,6.5195467 C5.76886694,6.72006692 5.71417957,7.0026186 5.6230341,7.36720093 L5.59569041,7.44923198 C5.86912726,8.16016779 6.27928253,8.6796978 6.82615623,9.00782202 C7.90167436,8.86198917 8.57615206,8.92579096 8.8495889,9.19922781 Z M2.58788508,11.6328158 C2.58788508,11.651045 2.63345803,11.6237013 2.72460351,11.5507847 C2.81574898,11.4778681 2.9160093,11.3684933 3.02538404,11.2226605 C3.18944615,11.0403691 3.36262268,10.8033908 3.54491405,10.5117247 L3.462883,10.5937557 C2.97069667,11.0312547 2.67903056,11.3776082 2.58788508,11.6328158 Z M5.18553514,5.53517405 L5.18553514,5.56251773 C5.14907703,5.56251773 5.13084777,5.72657984 5.13084777,6.05470406 C5.13084777,6.38282828 5.16730588,6.6471507 5.24022251,6.84767092 C5.33136799,6.70183807 5.37238351,6.44663007 5.36326909,6.08204774 C5.35415467,5.71746542 5.29490988,5.53517405 5.18553514,5.53517405 Z M4.41991197,9.91016362 L4.77537987,9.74610151 C5.35871167,9.50912277 5.81443989,9.36328992 6.14256411,9.30860255 C5.75975252,9.01693644 5.44074273,8.63412485 5.18553514,8.16016779 C4.91209829,8.88933286 4.65689071,9.47266466 4.41991197,9.91016362 Z M8.60349574,9.74610151 C8.65818311,9.7096434 8.65362569,9.66862787 8.5898239,9.62305493 C8.52602211,9.57748198 8.41208995,9.53646645 8.24802784,9.50000834 C8.02927836,9.46355024 7.75584151,9.46355024 7.42771729,9.50000834 C7.7193834,9.62761235 7.97459099,9.7096434 8.19334047,9.74610151 C8.33917332,9.78255962 8.44854805,9.79167446 8.52146469,9.77344519 C8.55792279,9.77344519 8.58526648,9.76433077 8.60349574,9.74610151 Z"/>
  </defs>
  <g fill="none" fill-rule="evenodd">
    <use fill="#ffffff" fill-opacity="1" xlink:href="#pdf-a"/>
  </g>
</svg>
